<?xml version="1.0" encoding="UTF-8"?>
<!DOCTYPE svg PUBLIC "-//W3C//DTD SVG 1.1//EN" "http://www.w3.org/Graphics/SVG/1.1/DTD/svg11.dtd">
<svg version="1.1" xmlns="http://www.w3.org/2000/svg" xmlns:xlink="http://www.w3.org/1999/xlink" x="0" y="0" width="492" height="537" viewBox="0, 0, 492, 537">
  <g id="Layer_1">
    <path d="M224.865,237.453 L338.865,237.453 L338.865,281.454 L224.865,281.454 z" fill="#553535"/>
    <path d="M71.874,292.188 C71.874,292.188 68.544,286.98 53.895,279.576 C33.324,269.175 14.115,258.999 8.205,252.156 C2.505,245.565 5.472,243.183 5.472,243.183 C5.472,243.183 1.467,239.778 2.187,236.877 C2.7,234.819 6.822,235.536 6.822,235.536 C6.822,235.536 3.378,230.958 4.983,229.881 C6.588,228.804 15.612,231.174 15.612,231.174 C15.612,231.174 13.893,227.343 15.435,227.103 C22.131,226.068 64.863,243.78 64.863,243.78 C64.863,243.78 57.306,236.727 55.479,231.231 C54.624,228.657 52.971,221.703 56.628,222.81 C58.992,223.518 67.764,234.111 76.002,237.177 C82.407,239.565 88.209,245.244 90.822,256.02 C91.92,260.55 94.266,267.402 95.082,273.318" fill="#F8D2B5"/>
    <path d="M175.599,304.506 C166.158,310.026 145.068,319.8 136.824,321.984 C133.41,322.887 132.126,322.026 130.101,319.449 C123.765,311.388 97.905,271.704 97.905,271.704 C97.905,271.704 78.555,286.176 68.139,297 C68.139,297 107.64,363.267 112.365,367.329 C118.125,372.288 125.775,370.356 138.117,367.452 C155.115,363.453 191.835,354.327 206.964,348.702 L208.254,355.152 L225.96,427.602 L212.835,486.276 L367.365,486.276 L350.769,427.602 L363.567,382.578 L390.942,474.078 L407.115,469.017 L417.282,462.855 C417.282,462.855 399.753,346.971 396.63,323.346 C393.507,299.721 377.49,288.846 365.865,285.846 C354.24,282.846 306,267.624 306,267.624 L272.115,269.454 L244.728,280.929 L175.599,304.506" fill="#EA9BBA"/>
    <path d="M289.362,395.457 L308.994,307.734 L308.994,268.566 L269.334,271.476 L269.334,307.734 L288.366,395.457" fill="#FFFFFE"/>
    <path d="M297.906,301.755 C302.406,296.592 321.156,310.881 321.156,310.881 C319.056,267.18 312.108,266.574 307.971,265.815 L271.239,265.815 C267.102,266.574 260.151,267.18 258.051,310.881 C258.051,310.881 276.801,296.592 281.301,301.755 L283.149,307.743 L295.392,308.352 L297.906,301.755" fill="#FFFFFE"/>
    <path d="M306,273.471 L306,251.346 L272.442,253.347 L272.442,260.121 L271.728,273.471 L289.269,304.485 L306,273.471" fill="#F8D2B5"/>
    <path d="M272.442,255.792 L305.991,255.078 L306.072,270.12 C306.072,270.12 287.238,284.406 272.442,277.101 L272.442,255.792" fill="#C79986"/>
    <path d="M465.438,486.963 C465.438,486.963 471.273,481.128 466.083,477.555 C462.285,474.948 431.85,465.831 418.659,464.538 C408.306,463.521 399.9,464.916 392.121,473.127 C384.207,481.476 389.091,485.664 392.988,486.963 L465.438,486.963" fill="#F8D2B5"/>
    <path d="M98.415,272.457 C96.561,269.355 132.489,323.097 131.664,323.037 C130.998,322.983 145.365,318.834 139.422,321.336 L185.367,300.702 L197.616,304.953 C197.616,304.953 145.245,327.642 138.21,329.1 C131.178,330.555 129.24,329.1 125.601,325.461 C121.962,321.822 96.234,272.946 96.234,272.946 L98.415,272.457" fill="#F4CAD7"/>
    <path d="M360.627,393.702 C345.981,405.678 324.852,417.36 288.864,418.452 C255.864,419.454 230.427,408.045 216.96,390.204 L225.96,427.602 L212.835,486.276 L365.628,486.276 L352.503,427.602 L360.627,393.702" fill="#D980A9"/>
    <path d="M262.833,273.69 C257.043,275.721 249.429,278.481 243.138,281.061 M313.29,270.459 C327.831,275.013 355.671,283.665 364.128,285.846 C375.753,288.846 393.507,299.721 396.63,323.346 C399.753,346.971 417.591,463.161 417.591,463.161 M203.688,330.867 L225.96,427.602 L212.835,486.276 M375.921,329.292 L352.503,427.602 L365.628,486.276 M363.567,382.578 L390.753,473.649 M270.243,271.704 L289.074,303.93 L307.803,270.792 M268.926,305.892 L288.366,395.457 M309.333,305.049 L289.362,395.457 M392.988,486.963 C389.091,485.664 384.207,481.476 392.121,473.127 C399.9,464.916 408.918,462.45 419.271,463.467 C432.462,464.763 462.285,474.948 466.083,477.555 C471.273,481.128 465.438,486.963 465.438,486.963" fill-opacity="0" stroke="#1A1919" stroke-width="4.2" stroke-linecap="round" stroke-linejoin="round"/>
    <path d="M406.803,472.752 C406.803,472.752 424.446,473.667 428.664,478.209 C432.876,482.751 427.035,485.988 421.524,486.636" fill-opacity="0" stroke="#1A1919" stroke-width="3.6" stroke-linecap="round" stroke-linejoin="round"/>
    <path d="M184.365,300.078 C174.924,305.598 145.068,319.8 136.824,321.984 C133.41,322.887 132.126,322.026 130.101,319.449 C123.765,311.388 97.905,271.704 97.905,271.704 C97.905,271.704 77.694,285.9 68.493,296.481 C68.493,296.481 106.89,361.89 111.615,365.952 C117.375,370.911 122.679,370.26 135.114,367.8 C153.114,364.236 190.74,353.892 207.051,347.703 M281.301,301.872 C276.801,296.706 258.051,310.995 258.051,310.995 C260.151,267.297 267.102,266.688 271.239,265.932 M297.906,301.872 C302.406,296.706 321.156,310.995 321.156,310.995 C319.056,267.297 311.991,265.932 306.615,265.08" fill-opacity="0" stroke="#1A1919" stroke-width="4.2" stroke-linecap="round" stroke-linejoin="round"/>
    <g>
      <path d="M109.365,484.899 L488.865,484.899 L488.865,534.9 L109.365,534.9 z" fill="#BBAE92"/>
      <path d="M109.365,534.9 L109.365,484.899 L488.865,484.899 L488.865,534.9" fill-opacity="0" stroke="#1A1919" stroke-width="4.2" stroke-linecap="round" stroke-linejoin="round"/>
      <path d="M294.612,411.489 C294.612,414.39 292.26,416.739 289.362,416.739 C286.461,416.739 284.112,414.39 284.112,411.489 C284.112,408.588 286.461,406.239 289.362,406.239 C292.26,406.239 294.612,408.588 294.612,411.489 z M294.612,441.702 C294.612,444.603 292.26,446.952 289.362,446.952 C286.461,446.952 284.112,444.603 284.112,441.702 C284.112,438.804 286.461,436.452 289.362,436.452 C292.26,436.452 294.612,438.804 294.612,441.702 z" fill-opacity="0" stroke="#1A1919" stroke-width="3.6"/>
      <path d="M71.874,292.188 C71.874,292.188 73.092,290.01 57.99,282.828 C40.059,274.305 14.115,258.999 8.205,252.156 C2.505,245.565 5.472,243.183 5.472,243.183 C5.472,243.183 1.467,239.778 2.187,236.877 C2.7,234.819 6.822,235.536 6.822,235.536 C6.822,235.536 3.378,230.958 4.983,229.881 C6.588,228.804 15.612,231.174 15.612,231.174 C15.612,231.174 13.893,227.343 15.435,227.103 C22.131,226.068 64.863,243.78 64.863,243.78 C64.863,243.78 57.306,236.727 55.479,231.231 C54.624,228.657 52.971,221.703 56.628,222.81 C58.992,223.518 67.764,234.111 76.002,237.177 C82.407,239.565 88.209,245.244 90.822,256.02 C91.92,260.55 94.266,267.402 95.082,273.318" fill-opacity="0" stroke="#1A1919" stroke-width="4.2" stroke-linecap="round" stroke-linejoin="round"/>
      <path d="M64.863,243.78 L67.416,245.922 C67.416,245.922 67.167,262.905 79.545,270.804 M34.257,260.841 C34.257,260.841 45.639,247.146 56.781,240.543 M15.612,231.174 C15.612,231.174 42.156,242.106 48.915,245.769 M6.822,235.536 C6.822,235.536 30.579,245.604 41.829,252.186 M5.472,243.183 C5.472,243.183 26.349,253.665 35.895,258.189" fill-opacity="0" stroke="#1A1919" stroke-width="3.6" stroke-linecap="round" stroke-linejoin="round"/>
      <path d="M322.179,256.677 C326.076,265.47 328.932,274.176 325.317,283.59 C321.708,292.995 316.653,293.913 316.653,293.913 C316.653,293.913 342.759,318.099 390.279,299.052 C411.501,290.547 405.318,256.089 399.285,233.472 C387.351,188.721 397.965,164.277 398.193,147.15 C405.969,35.805 347.799,28.743 347.799,28.743 C335.484,1.152 245.487,-18.555 200.223,47.358 C171.624,89.013 177.435,149.226 177.435,149.226 C177.657,166.353 189.387,190.992 176.346,235.551 C171.522,252.024 167.481,271.878 173.247,286.626 C175.341,291.99 180.993,295.452 185.421,299.64 C191.424,305.313 210.108,308.82 229.788,306.477 C238.494,305.442 247.209,300.612 256.572,294.777 C256.572,294.777 250.812,294.096 247.701,284.52 C245.073,276.414 248.343,263.838 253.206,255.915" fill="#553535"/>
      <path d="M199.065,140.223 C238.167,105.078 239.721,68.28 239.721,68.28 C239.721,68.28 265.098,104.418 315.822,108.156 C315.822,108.156 296.064,100.332 295.248,80.952 C295.248,80.952 306.906,99.018 340.116,107.586 C353.385,111.009 371.775,125.625 376.419,142.026 C377.247,159.465 376.59,187.323 369.039,209.913 C354.918,252.192 309.546,262.827 288.15,262.827 C266.763,262.827 222.003,252.192 207.876,209.913 C199.896,186.036 199.623,156.273 200.655,139.152" fill="#F8D2B5"/>
      <path d="M347.799,28.743 C335.484,1.152 245.487,-18.555 200.223,47.358 C171.624,89.013 176.862,147.231 176.862,147.231 L181.521,188.904 C181.32,170.454 180.651,91.569 203.973,59.916 C248.166,-0.066 320.097,10.683 341.172,32.634 C341.172,32.634 374.541,44.052 390.351,72.444 C390.351,72.444 383.697,39.198 347.799,28.743" fill="#BA8373"/>
    </g>
    <path d="M265.122,159.018 C265.122,172.065 257.01,182.643 247.005,182.643 C237.006,182.643 228.891,172.065 228.891,159.018 C228.891,145.968 237.006,135.39 247.005,135.39 C257.01,135.39 265.122,145.968 265.122,159.018" fill="#FFFFFE"/>
    <path d="M348.993,159.018 C348.993,172.065 340.884,182.643 330.891,182.643 C320.877,182.643 312.765,172.065 312.765,159.018 C312.765,145.968 320.877,135.39 330.891,135.39 C340.884,135.39 348.993,145.968 348.993,159.018" fill="#FFFFFE"/>
    <path d="M288.732,244.161 C271.155,244.161 269.901,215.238 269.691,208.74 C269.691,208.74 288.387,217.008 307.077,208.74 C306.873,215.238 305.616,244.161 288.036,244.161" fill="#DF7370"/>
    <path d="M236.943,185.307 C236.943,189.387 230.058,192.705 221.562,192.705 C213.066,192.705 206.175,189.387 206.175,185.307 C206.175,181.218 213.066,177.906 221.562,177.906 C230.058,177.906 236.943,181.218 236.943,185.307" fill="#F1B1A2"/>
    <path d="M370.89,185.307 C370.89,189.387 363.999,192.705 355.503,192.705 C347.004,192.705 340.122,189.387 340.122,185.307 C340.122,181.218 347.004,177.906 355.503,177.906 C363.999,177.906 370.89,181.218 370.89,185.307" fill="#F1B1A2"/>
    <path d="M212.052,40.764 C240.735,50.394 259.779,50.499 270.459,49.032 C277.632,48.048 273.855,45.483 270.588,44.913 C236.976,39.018 226.947,26.112 226.947,26.112 L212.052,40.764" fill="#BA8373"/>
    <path d="M329.649,142.83 C325.449,142.83 321.453,143.592 317.763,144.93 C321.081,140.097 325.878,137.043 331.242,137.043 C337.293,137.043 342.639,140.931 345.93,146.88 C341.124,144.315 335.58,142.83 329.649,142.83" fill="#D2E0EB"/>
    <path d="M248.415,142.773 C252.612,142.773 256.608,143.532 260.292,144.867 C256.983,140.04 252.18,136.98 246.822,136.98 C240.762,136.98 235.422,140.871 232.131,146.823 C236.931,144.261 242.484,142.773 248.415,142.773" fill="#D2E0EB"/>
    <path d="M183.075,203.112 C183.075,203.112 186.612,210.69 180.642,251.421 C178.737,264.435 178.533,292.485 203.934,306.498 C203.934,306.498 185.697,301.425 182.037,297.951 C173.499,289.857 171.168,282.87 170.874,275.619 C170.214,259.635 174.375,245.841 175.251,241.026 C176.127,236.205 183.075,203.112 183.075,203.112" fill="#BA8373"/>
    <path d="M392.145,203.871 C392.145,203.871 389.622,204.378 397.398,249.453 C401.334,272.256 398.385,292.485 372.987,306.498 C372.987,306.498 391.227,301.425 394.875,297.951 C403.419,289.857 405.75,282.87 406.047,275.619 C406.704,259.635 402.546,245.841 401.67,241.026 C400.788,236.205 392.145,203.871 392.145,203.871" fill="#BA8373"/>
    <path d="M288.213,217.269 C294.969,217.269 301.029,219.066 305.256,225.072 C306.861,217.956 307.143,211.251 307.221,209.286 C288.567,215.208 269.901,209.286 269.901,209.286 C269.985,211.188 270.24,217.5 271.695,224.319 C275.895,218.748 281.745,217.269 288.213,217.269" fill="#AC514C"/>
    <path d="M247.869,270.459 C243.768,291.504 255.612,294.777 255.612,294.777 C255.612,294.777 221.346,322.698 184.803,299.052 C165.609,286.626 170.493,258.216 176.346,235.551 C189.387,199.704 179.538,169.785 177.435,149.226 C177.435,149.226 171.624,89.013 200.223,47.358 C245.487,-18.555 335.484,1.152 347.799,28.743 C347.799,28.743 405.969,35.805 398.193,147.15 C397.965,164.277 387.096,193.266 398.457,233.415 C404.832,255.939 411.174,287.967 390.831,298.392 C351.087,318.756 319.611,294.453 319.611,294.453 C319.611,294.453 330.558,289.629 328.335,269.376 M262.398,115.977 C255.504,110.724 238.095,108.093 228.57,119.592" fill-opacity="0" stroke="#1A1919" stroke-width="4.2" stroke-linecap="round" stroke-linejoin="round"/>
    <path d="M263.142,145.323 C255.54,129.3 223.695,129.225 228.24,167.025" fill-opacity="0" stroke="#1A1919" stroke-width="4.8" stroke-linecap="round" stroke-linejoin="round"/>
    <path d="M313.968,115.977 C320.865,110.724 338.277,108.093 347.799,119.592" fill-opacity="0" stroke="#1A1919" stroke-width="4.2" stroke-linecap="round" stroke-linejoin="round"/>
    <path d="M314.007,146.874 C320.22,129.339 354.243,128.046 349.551,167.025" fill-opacity="0" stroke="#1A1919" stroke-width="4.8" stroke-linecap="round" stroke-linejoin="round"/>
    <path d="M222.003,155.856 L227.799,159.471 M349.989,159.471 L357.759,155.856 M288.459,197.439 L288.459,192.18 M199.065,140.223 C238.167,105.078 239.721,68.28 239.721,68.28 C239.721,68.28 265.098,104.418 315.822,108.156 C315.822,108.156 296.064,100.332 295.248,80.952 C295.248,80.952 306.906,99.018 340.116,107.586 C353.385,111.009 371.775,125.625 376.419,142.026 C377.247,159.465 376.59,187.323 369.039,209.913 C354.918,252.192 309.546,262.827 288.15,262.827 C266.763,262.827 222.003,252.192 207.876,209.913 C199.896,186.036 199.623,156.273 200.655,139.152 M273.744,274.29 L274.005,261.93 M304.365,272.31 L303.996,262.038 M288.732,244.161 C271.155,244.161 269.901,215.238 269.691,208.74 C269.691,208.74 288.387,217.008 307.077,208.74 C306.873,215.238 305.616,244.161 288.036,244.161" fill-opacity="0" stroke="#1A1919" stroke-width="4.2" stroke-linecap="round" stroke-linejoin="round"/>
    <path d="M262.299,162.429 C262.299,171.315 257.295,178.521 251.13,178.521 C244.962,178.521 239.964,171.315 239.964,162.429 C239.964,153.54 244.962,146.331 251.13,146.331 C257.295,146.331 262.299,153.54 262.299,162.429" fill="#1A1919"/>
    <path d="M315.279,162.429 C315.279,171.315 320.283,178.521 326.448,178.521 C332.622,178.521 337.62,171.315 337.62,162.429 C337.62,153.54 332.622,146.331 326.448,146.331 C320.283,146.331 315.279,153.54 315.279,162.429" fill="#1A1919"/>
    <path d="M262.095,157.041 C262.095,158.859 260.622,160.335 258.801,160.335 C256.983,160.335 255.504,158.859 255.504,157.041 C255.504,155.217 256.983,153.738 258.801,153.738 C260.622,153.738 262.095,155.217 262.095,157.041" fill="#FFFFFE"/>
    <path d="M336.756,157.041 C336.756,158.859 335.277,160.335 333.453,160.335 C331.629,160.335 330.153,158.859 330.153,157.041 C330.153,155.217 331.629,153.738 333.453,153.738 C335.277,153.738 336.756,155.217 336.756,157.041" fill="#FFFFFE"/>
  </g>
</svg>
